<svg width="1440" height="1024" viewBox="0 0 1440 1024" fill="none" xmlns="http://www.w3.org/2000/svg">
<g clip-path="url(#clip0)">
<rect width="1440" height="1024" fill="#535252"/>
<path d="M-5.70024 -54L357.012 -47.4235L620 -54C620 -54 456.741 234.488 270.123 297.622C83.5052 360.756 195.224 722.461 -5.70024 854.429C-206.625 986.397 -5.70024 -54 -5.70024 -54Z" fill="#AB6161"/>
<path d="M-53.3264 -113L314.966 -106.559L582 -113C582 -113 416.229 169.53 226.74 231.36C37.2514 293.19 150.689 647.426 -53.3264 776.668C-257.342 905.91 -53.3264 -113 -53.3264 -113Z" fill="#985050"/>
<path d="M1414.89 1125.05L1012.75 1118.85L721.183 1125.92C721.183 1125.92 901.815 831.587 1108.63 766.962C1315.45 702.337 1191.13 333.741 1413.72 198.921C1636.31 64.1017 1414.89 1125.05 1414.89 1125.05Z" fill="#AB6161"/>
<path d="M1476.26 1162.05L1079.7 1155.86L792.181 1162.91C792.181 1162.91 970.302 869.208 1174.25 804.725C1378.2 740.242 1255.59 372.435 1475.1 237.908C1694.6 103.381 1476.26 1162.05 1476.26 1162.05Z" fill="#985050"/>
</g>
<defs>
<clipPath id="clip0">
<rect width="1440" height="1024" fill="white"/>
</clipPath>
</defs>
</svg>
