<svg width="1440" height="1024" viewBox="0 0 1440 1024" fill="none" xmlns="http://www.w3.org/2000/svg">
<g clip-path="url(#clip0)">
<rect width="1440" height="1024" fill="#535252"/>
<path d="M-19.1889 -54L288.736 -48.5244L512 -54C512 -54 373.401 186.197 214.972 238.763C56.5422 291.329 151.386 592.488 -19.1889 702.366C-189.764 812.243 -19.1889 -54 -19.1889 -54Z" fill="#AB6161"/>
<path d="M-66.1906 -113L249.851 -107.446L479 -113C479 -113 336.748 130.647 174.142 183.967C11.5367 237.288 108.881 542.772 -66.1906 654.228C-241.262 765.683 -66.1906 -113 -66.1906 -113Z" fill="#985050"/>
<path d="M1406.66 1125.06L971.093 1118.25L655.298 1126.01C655.298 1126.01 850.938 803.09 1074.95 732.193C1298.95 661.296 1164.29 256.903 1405.38 108.994C1646.47 -38.9141 1406.66 1125.06 1406.66 1125.06Z" fill="#AB6161"/>
<path d="M1464.66 1162.06L1020.99 1155.14L699.32 1163.03C699.32 1163.03 898.601 834.769 1126.78 762.698C1354.95 690.628 1217.78 279.546 1463.36 129.191C1708.94 -21.1648 1464.66 1162.06 1464.66 1162.06Z" fill="#985050"/>
</g>
<defs>
<clipPath id="clip0">
<rect width="1440" height="1024" fill="white"/>
</clipPath>
</defs>
</svg>
